<svg width="56" height="56" viewBox="0 0 56 56" fill="none" xmlns="http://www.w3.org/2000/svg">
<path d="M40.8511 0.00088607C48.5827 -0.0805044 54.9163 6.12118 54.9977 13.8527L55.2819 40.8512C55.3633 48.5828 49.1616 54.9165 41.4301 54.9978L14.4316 55.2821C6.70001 55.3634 0.366362 49.1618 0.284972 41.4302L0.000757205 14.4317C-0.0806332 6.70014 6.12105 0.366491 13.8526 0.285101L40.8511 0.00088607Z" fill="url(#paint0_linear_3_2)"/>
<path d="M44.8428 28.6723C44.8293 29.085 44.872 29.4316 44.8428 30.0077C44.8428 31.1205 44.8428 34.9133 44.8428 35.8035C44.8428 38.9099 42.6274 39.7033 40.9042 40.0227C39.1811 40.3421 37.9503 40.4671 35.981 40.4671C35.2794 40.4671 33.2732 40.4671 32.5347 40.4671C31.7962 40.4671 30.8116 41.0613 30.3192 41.358C29.8269 41.6548 28.8423 42.2483 28.1038 42.6934C27.4452 43.0903 26.4842 43.6937 25.8883 44.0288C25.2925 44.3638 24.2889 44.9911 24.2889 44.8265C24.2889 44.8265 24.2974 43.6043 24.2889 43.0653C24.2832 42.7028 24.2889 42.3861 24.2889 42.0567C24.2889 41.2499 24.2889 39.9415 24.2889 39.8001C24.2889 39.6588 25.2924 39.0465 26.6268 38.2422C27.9612 37.4379 27.3653 37.7971 28.5961 37.1294C29.8269 36.4617 31.0577 35.9424 31.5501 35.794C32.0424 35.6456 32.5347 35.5715 33.027 35.5715C33.5194 35.5715 34.7502 35.5707 36.9656 35.5707C39.1811 35.5707 39.4273 34.4587 39.4273 31.5656C39.4272 30.2303 39.4036 30.1018 39.4273 28.6723C39.4399 27.9171 39.4273 27.2323 39.4273 26.2242C39.4206 25.8591 39.4273 23.8961 39.4273 23.5534C39.4273 24.3327 39.4273 22.5783 39.4273 23.5534C39.4273 23.3241 39.4273 21.9973 39.4273 21.7738C39.3979 21.4765 39.439 21.1743 39.4221 20.8836C39.4134 20.7345 39.4169 20.8825 39.4221 19.5471C39.4273 18.2118 38.6888 17.7666 37.4767 17.7666C36.2646 17.7666 36.5993 17.7841 35.4887 17.7666C33.7655 17.7666 31.5501 17.7666 29.0884 17.7666C28.3928 17.7827 22.1322 17.7666 20.9651 17.7666C20.719 17.7659 19.242 17.7659 18.9958 17.7659C17.765 17.7659 17.2727 18.6561 17.2727 19.5464C17.2727 20.8817 17.2997 21.2541 17.2728 21.9955C17.2728 24.0127 17.2619 25.1468 17.2728 27.1144C17.2812 28.6426 17.2139 30.7033 17.2728 32.2333C17.2728 34.8958 17.5376 35.5707 20.2266 35.5707C21.3601 35.5707 24.1652 35.5707 24.1652 35.5707C24.1652 35.5707 24.1652 35.5613 24.1652 35.7941C24.1652 36.0269 24.1652 39.355 24.1652 39.355V40.4678C24.1652 40.4678 21.6235 40.4671 20.2266 40.4671C19.242 40.4671 16.7804 40.4671 15.3034 40.022C14.2076 39.6918 13.599 39.1318 13.3341 38.9092C13.0692 38.6867 12.336 37.7994 12.1034 36.9062C11.8022 35.7496 11.8572 35.1257 11.8572 33.1226C11.8572 30.6745 11.8497 30.0715 11.8572 27.1144C11.8643 24.3038 11.8569 21.1053 11.8571 18.6571C11.8573 16.9823 12.3682 15.5403 13.3528 14.6501C13.3528 14.6501 13.9464 13.9366 15.3221 13.3147C15.8385 13.0813 16.7991 12.8696 18.0112 12.8696C19.2233 12.8696 19.7343 12.8707 20.719 12.8559C20.8697 12.8646 22.9677 12.8469 23.2845 12.8564C24.4114 12.8901 26.1345 12.8703 26.1345 12.8703C26.1345 12.8703 27.8371 12.8568 29.0884 12.8703C29.6074 12.8631 30.7136 12.8831 31.0578 12.8708C31.5374 12.8923 32.8599 12.843 33.5194 12.8714C35.2425 12.8714 36.4733 12.8714 38.1965 12.8714C42.6461 12.8559 44.8428 15.0952 44.8428 19.5471C44.8428 22.4086 44.8428 25.7788 44.8428 28.6723Z" fill="white"/>
<path d="M20.5765 25.3262C20.0724 25.6097 20.0055 25.8247 19.959 26.028C19.8554 26.4814 19.8403 27.3211 19.8616 27.9655C19.959 29.5573 22.0624 30.4871 24.1926 30.6965C26.3228 30.9059 29.1805 30.9059 30.6533 30.6965C32.126 30.4871 35.0715 30.207 35.0715 28.1837C35.0715 26.1605 35.0668 27.0355 35.0715 26.5705C35.0761 26.1055 35.0485 25.503 34.5805 25.3262C34.1126 25.1495 33.5987 25.4616 32.6169 25.8804L32.5532 25.9076C31.9555 26.1629 31.1481 26.5079 29.9169 26.7179C28.6896 26.9273 27.3493 26.8199 25.7442 26.7179C25.0223 26.6721 23.8277 26.424 23.0442 26.0898C22.2606 25.7555 21.0805 25.0428 20.5765 25.3262Z" fill="white"/>
<defs>
<linearGradient id="paint0_linear_3_2" x1="14.7161" y1="-13.7842" x2="52.2161" y2="50.2158" gradientUnits="userSpaceOnUse">
<stop offset="0.409133" stop-color="#1597D1"/>
<stop offset="0.824737" stop-color="#08679A" stop-opacity="0.96"/>
</linearGradient>
</defs>
</svg>
