<svg width="19" height="19" viewBox="0 0 19 19" fill="none" xmlns="http://www.w3.org/2000/svg">
<path d="M1.91593 10.0645C1.80812 9.89377 1.75421 9.80843 1.72403 9.67678C1.70136 9.5779 1.70136 9.42194 1.72403 9.32306C1.75421 9.19141 1.80812 9.10606 1.91593 8.9353C2.80688 7.52458 5.45886 3.95825 9.50032 3.95825C13.5418 3.95825 16.1938 7.52458 17.0847 8.9353C17.1925 9.10606 17.2465 9.19141 17.2766 9.32306C17.2993 9.42194 17.2993 9.5779 17.2766 9.67678C17.2465 9.80843 17.1925 9.89377 17.0847 10.0645C16.1938 11.4753 13.5418 15.0416 9.50032 15.0416C5.45886 15.0416 2.80688 11.4753 1.91593 10.0645Z" stroke="#9BA0AD" stroke-width="1.5" stroke-linecap="round" stroke-linejoin="round"/>
<path d="M9.50049 11.875C10.8122 11.875 11.8755 10.8117 11.8755 9.5C11.8755 8.18829 10.8122 7.125 9.50049 7.125C8.18878 7.125 7.12549 8.18829 7.12549 9.5C7.12549 10.8117 8.18878 11.875 9.50049 11.875Z" stroke="#9BA0AD" stroke-width="1.5" stroke-linecap="round" stroke-linejoin="round"/>
</svg>
